<?xml version="1.0" encoding="UTF-8"?>
<svg xmlns="http://www.w3.org/2000/svg" version="1.1" viewBox="0 0 1004.3 255.9">
  <defs>
    <style>
      .cls-1 {
        fill: #fff;
      }
    </style>
  </defs>
  <!-- Generator: Adobe Illustrator 28.7.10, SVG Export Plug-In . SVG Version: 1.2.0 Build 236)  -->
  <g>
    <g id="_レイヤー_1" data-name="レイヤー_1">
      <g id="_レイヤー_1-2" data-name="_レイヤー_1">
        <g>
          <g id="G">
            <g>
              <path class="cls-1" d="M806.1,144.7v-5.6h-106.6v16.8c0,4.1.3,8.2.7,12.3h120.8c-8.8-4.1-14.9-13-14.9-23.4h0Z"/>
              <path class="cls-1" d="M897.7,139.2v29h105.9c.5-4,.7-8.1.7-12.3v-16.8h-106.6Z"/>
              <rect class="cls-1" x="897.7" y="117.1" width="106.6" height="13"/>
              <path class="cls-1" d="M699.8,92.1h114.6c4.6-4.3,10.8-6.9,17.5-6.9h171.3c-.8-5.6-2.1-10.9-3.8-16.2h-295.1c-2.4,7.3-3.9,15-4.5,23h0Z"/>
              <path class="cls-1" d="M991.1,205.7c5.5-9.6,9.5-20.2,11.6-31.5h-301.5c2.1,11.3,6.1,21.9,11.6,31.5h278.3Z"/>
              <path class="cls-1" d="M960.3,17.1c-16-10.8-35.2-17.1-55.9-17.1h-104.9c-20.7,0-40,6.3-55.9,17.1h216.8,0Z"/>
              <path class="cls-1" d="M699.5,130.2h106.6v-19c0-2.4.3-4.8,1-7h-107.6v26Z"/>
              <path class="cls-1" d="M715.2,209.7c17.8,27.8,48.9,46.2,84.3,46.2h104.9c35.4,0,66.5-18.4,84.3-46.2h-273.5Z"/>
              <path class="cls-1" d="M725.1,33.1c-5.7,6.3-10.6,13.4-14.5,21h282.6c-3.9-7.6-8.8-14.7-14.5-21h-253.6Z"/>
            </g>
          </g>
          <g id="S">
            <g>
              <rect class="cls-1" x="349.4" y="104.1" width="304.8" height="26"/>
              <path class="cls-1" d="M641,205.7c5.5-9.6,9.5-20.2,11.6-31.5h-301.5c2.1,11.3,6,21.9,11.6,31.5h278.3Z"/>
              <path class="cls-1" d="M349.7,92.1h106.3v-8.6h196.9c-.8-5-2-9.8-3.5-14.5h-295.1c-2.4,7.3-3.9,15-4.5,23h-.1Z"/>
              <path class="cls-1" d="M349.4,139.2v14.4h198.2v14.6h105.9c.5-4,.7-8.1.7-12.3v-16.8h-304.8Z"/>
              <path class="cls-1" d="M375,33.1c-5.7,6.3-10.6,13.4-14.5,21h282.6c-3.9-7.6-8.8-14.7-14.5-21h-253.6,0Z"/>
              <path class="cls-1" d="M365.1,209.7c17.8,27.8,48.8,46.2,84.3,46.2h104.9c35.4,0,66.5-18.4,84.3-46.2h-273.5Z"/>
              <path class="cls-1" d="M610.2,17.1c-16-10.8-35.2-17.1-55.9-17.1h-104.9c-20.7,0-40,6.3-55.9,17.1h216.8,0Z"/>
            </g>
          </g>
          <g id="R">
            <g>
              <path class="cls-1" d="M283.1,174.2h-107.1c13.1,4.6,22.5,16.9,22.7,31.5h101.4c-3.8-11.6-9.6-22.2-17-31.5Z"/>
              <rect class="cls-1" x=".1" y="174.2" width="107" height="31.5"/>
              <path class="cls-1" d="M196,104.1c1.8,4.1,2.7,8.6,2.7,13.3h-91.6v-13.3H0v26h305.1v-26s-109.1,0-109.1,0Z"/>
              <path class="cls-1" d="M305.1,139.2H0v14.6h0v14.5h277.8c-5.1-5.4-10.8-10.3-16.9-14.5h44.1v-14.6h.1Z"/>
              <rect class="cls-1" x=".1" y="209.7" width="107" height="46.2"/>
              <path class="cls-1" d="M4.8,69.1c-2.4,7.3-3.9,15-4.5,23h106.8v-8.6h57.7c8.6,0,16.5,3.2,22.5,8.6h117.4c-.6-8-2.2-15.7-4.5-23H4.8Z"/>
              <path class="cls-1" d="M261.1,17.1C245.1,6.3,225.9,0,205.1,0h-105.2c-20.7,0-40,6.3-55.9,17.1h217.1Z"/>
              <path class="cls-1" d="M198.7,209.7v46.2h106.2v-19.3c0-9.3-1.3-18.3-3.7-26.8h-102.6.1Z"/>
              <path class="cls-1" d="M25.6,33.1c-5.7,6.3-10.6,13.4-14.5,21h282.9c-3.9-7.6-8.8-14.7-14.5-21H25.6Z"/>
            </g>
          </g>
        </g>
      </g>
    </g>
  </g>
</svg>