<svg xmlns="http://www.w3.org/2000/svg" version="1.1" viewBox="0 0 48 48" width="48" height="48"><defs>
    <style>
      .cls-1 {
        fill: #e70000;
      }
    </style>
  </defs><g>
    <g id="_レイヤー_1" data-name="レイヤー_1">
      <g>
        <path class="cls-1" d="M44.5,31.4h-16.9c2.1.7,3.5,2.7,3.6,5.1h16c-.6-1.9-1.5-3.6-2.7-5.1Z"></path>
        <rect class="cls-1" x="0" y="31.4" width="16.8" height="5.1"></rect>
        <path class="cls-1" d="M30.8,20.2c.3.7.4,1.4.4,2.1h-14.4v-2.1H0v4.2h48v-4.2h-17.2Z"></path>
        <path class="cls-1" d="M48,25.8H0v2.3h0v2.3h43.7c-.8-.9-1.7-1.7-2.7-2.3h6.9v-2.3Z"></path>
        <rect class="cls-1" x="0" y="37.1" width="16.8" height="7.4"></rect>
        <path class="cls-1" d="M.8,14.5c-.4,1.2-.6,2.4-.7,3.7h16.8v-1.4h9.1c1.4,0,2.6.5,3.5,1.4h18.5c0-1.3-.3-2.5-.7-3.7H.8Z"></path>
        <path class="cls-1" d="M41.1,6.2c-2.5-1.7-5.5-2.8-8.8-2.8H15.7c-3.3,0-6.3,1-8.8,2.8h34.2Z"></path>
        <path class="cls-1" d="M31.3,37.1v7.4h16.7v-3.1c0-1.5-.2-2.9-.6-4.3h-16.1Z"></path>
        <path class="cls-1" d="M4,8.8c-.9,1-1.7,2.2-2.3,3.4h44.5c-.6-1.2-1.4-2.4-2.3-3.4H4Z"></path>
      </g>
    </g>
  </g><style>@media (prefers-color-scheme: light) { :root { filter: contrast(1) brightness(1); } }
</style></svg>